<svg width="173" height="24" viewBox="0 0 173 24" fill="none" xmlns="http://www.w3.org/2000/svg">
<g clip-path="url(#clip0_13_1250)">
<path d="M1.10678 23.4353C0.42687 23.4353 0.0869141 23.0965 0.0869141 22.4188V7.51061C0.0869141 6.83296 0.42687 6.49414 1.10678 6.49414H16.0649C16.7448 6.49414 17.0847 6.83296 17.0847 7.51061V22.4188C17.0847 23.0965 16.7448 23.4353 16.0649 23.4353H1.10678Z" fill="#0000FF"/>
<path d="M33.2074 23.9435C32.2102 23.9435 31.2923 23.7515 30.4537 23.3675C29.6378 22.9609 28.9806 22.3284 28.482 21.47H27.8701V23.4352H23.6206V0.0563965H27.8701V8.56087H28.482C29.0032 7.67993 29.7058 7.03616 30.5897 6.62958C31.4963 6.2004 32.4481 5.98581 33.4453 5.98581C34.9638 5.98581 36.301 6.35852 37.4568 7.10393C38.6127 7.84934 39.5079 8.89969 40.1425 10.255C40.7997 11.5877 41.1284 13.1011 41.1284 14.7952C41.1284 16.5119 40.7771 18.0705 40.0745 19.471C39.3946 20.8715 38.454 21.967 37.2529 22.7576C36.0517 23.5482 34.7032 23.9435 33.2074 23.9435ZM32.2895 20.1486C33.604 20.1486 34.6805 19.663 35.5191 18.6917C36.3576 17.7204 36.7769 16.478 36.7769 14.9646C36.7769 13.4512 36.3463 12.2089 35.4851 11.2376C34.6465 10.2663 33.5813 9.78063 32.2895 9.78063C30.9977 9.78063 29.9325 10.255 29.0939 11.2037C28.278 12.1524 27.8701 13.406 27.8701 14.9646C27.8701 16.5232 28.278 17.7769 29.0939 18.7256C29.9325 19.6743 30.9977 20.1486 32.2895 20.1486ZM48.9813 23.9435C47.3042 23.9435 45.8991 23.4691 44.7659 22.5204C43.6327 21.5717 43.0661 20.318 43.0661 18.7595C43.0661 16.9976 43.644 15.71 44.7999 14.8969C45.9557 14.0837 47.5309 13.5755 49.5253 13.3722L54.5226 12.8639V11.9152C54.5226 11.1698 54.228 10.5712 53.6388 10.1195C53.0722 9.66769 52.2676 9.44181 51.2251 9.44181C50.2505 9.44181 49.4686 9.64511 48.8794 10.0517C48.2901 10.4357 47.8935 10.9665 47.6895 11.6442H43.61C43.814 9.97263 44.5846 8.61734 45.9217 7.57828C47.2589 6.51663 49.0267 5.98581 51.2251 5.98581C53.4461 5.98581 55.2025 6.51663 56.4944 7.57828C57.8089 8.63993 58.4661 10.1759 58.4661 12.1863V20.4536C58.4661 21.0183 58.4775 21.5717 58.5001 22.1138C58.5455 22.6333 58.5908 23.0512 58.6361 23.3675V23.4352H54.5566C54.534 23.0512 54.5226 22.4865 54.5226 21.7411H53.9107C53.0042 23.2093 51.361 23.9435 48.9813 23.9435ZM50.1372 20.7585C51.0211 20.7585 51.7917 20.5665 52.4489 20.1825C53.1288 19.7759 53.6387 19.2451 53.9787 18.59C54.3413 17.935 54.5226 17.246 54.5226 16.5232V15.6762L50.7831 16.1166C49.6046 16.2522 48.732 16.5119 48.1655 16.8959C47.6215 17.2799 47.3496 17.8333 47.3496 18.5562C47.3496 19.2338 47.5989 19.7759 48.0975 20.1825C48.6187 20.5665 49.2986 20.7585 50.1372 20.7585ZM68.6648 23.9435C66.5118 23.9435 64.7213 23.4465 63.2935 22.4526C61.8884 21.4588 61.0725 20.126 60.8458 18.4545H65.0273C65.2539 19.1548 65.6959 19.6856 66.3531 20.047C67.033 20.4084 67.8149 20.5891 68.6988 20.5891C69.56 20.5891 70.2739 20.4197 70.8405 20.0809C71.4298 19.7195 71.7244 19.2338 71.7244 18.6239C71.7244 18.0592 71.4751 17.6526 70.9765 17.4042C70.4779 17.1331 69.7074 16.9072 68.6648 16.7265L66.8631 16.4216C65.0726 16.1279 63.7015 15.5858 62.7496 14.7952C61.8204 13.982 61.3558 12.8413 61.3558 11.3731C61.3558 9.74675 62.0017 8.44793 63.2935 7.47663C64.5853 6.48275 66.2625 5.98581 68.3249 5.98581C70.2966 5.98581 71.9057 6.42628 73.1522 7.30722C74.4214 8.16558 75.2373 9.39663 75.5999 11.0004H71.5205C71.2938 10.4131 70.8972 9.97263 70.3306 9.67899C69.764 9.38534 69.1068 9.23852 68.3589 9.23852C67.4976 9.23852 66.8064 9.40793 66.2851 9.74675C65.7639 10.0856 65.5032 10.5148 65.5032 11.0343C65.5032 11.5538 65.7072 11.9378 66.1151 12.1863C66.5231 12.4122 67.2257 12.6042 68.2229 12.7623L70.0246 13.0672C71.8377 13.3609 73.2542 13.9143 74.2741 14.7275C75.3166 15.5406 75.8379 16.7152 75.8379 18.2512C75.8379 20.0131 75.1693 21.4023 73.8322 22.4188C72.5177 23.4352 70.7952 23.9435 68.6648 23.9435ZM86.4785 23.9435C84.7561 23.9435 83.2376 23.5708 81.9231 22.8253C80.6086 22.0799 79.5888 21.0296 78.8635 19.6743C78.1383 18.319 77.7756 16.7378 77.7756 14.9308C77.7756 13.1689 78.1496 11.6103 78.8975 10.255C79.6454 8.89969 80.6766 7.84934 81.9911 7.10393C83.3283 6.35852 84.8354 5.98581 86.5125 5.98581C88.235 5.98581 89.7195 6.3811 90.966 7.17169C92.2351 7.96228 93.1983 9.04652 93.8556 10.4244C94.5352 11.8023 94.8752 13.3609 94.8752 15.1002V15.8456H81.9231C82.0138 17.2235 82.4897 18.319 83.3509 19.1322C84.2122 19.9228 85.2547 20.318 86.4785 20.318C88.3596 20.318 89.6061 19.6969 90.2181 18.4545H94.5692C94.1162 20.0809 93.153 21.4023 91.6799 22.4188C90.2067 23.4352 88.4729 23.9435 86.4785 23.9435ZM90.728 13.0333C90.5693 11.9265 90.0934 11.0569 89.3002 10.4244C88.5069 9.76934 87.5664 9.44181 86.4785 9.44181C85.3453 9.44181 84.3595 9.75805 83.5209 10.3905C82.705 11.023 82.1951 11.9039 81.9911 13.0333H90.728ZM107.891 23.9435C106.304 23.9435 104.888 23.5595 103.641 22.7915C102.417 22.0235 101.466 20.9618 100.786 19.6065C100.106 18.2512 99.7658 16.7378 99.7658 15.0663C99.7658 13.3496 100.117 11.8023 100.82 10.4244C101.545 9.04652 102.531 7.96228 103.777 7.17169C105.046 6.3811 106.463 5.98581 108.027 5.98581C109.319 5.98581 110.486 6.27946 111.528 6.86675C112.571 7.45405 113.341 8.27852 113.84 9.34016H114.35V0.0563965H116.934V23.4352H114.35V20.5213H113.84C113.319 21.6056 112.526 22.4526 111.46 23.0625C110.418 23.6498 109.228 23.9435 107.891 23.9435ZM108.435 21.6733C109.545 21.6733 110.554 21.391 111.46 20.8263C112.39 20.239 113.115 19.4371 113.636 18.4206C114.157 17.3816 114.418 16.2296 114.418 14.9646C114.418 13.6997 114.157 12.559 113.636 11.5425C113.115 10.5035 112.39 9.70158 111.46 9.13687C110.554 8.54958 109.545 8.25593 108.435 8.25593C107.234 8.25593 106.18 8.54958 105.273 9.13687C104.367 9.72416 103.664 10.5373 103.165 11.5764C102.689 12.5929 102.451 13.7223 102.451 14.9646C102.451 16.207 102.701 17.3364 103.199 18.3529C103.698 19.3693 104.401 20.1825 105.307 20.7924C106.214 21.3797 107.256 21.6733 108.435 21.6733ZM129.269 23.9435C127.57 23.9435 126.051 23.5595 124.714 22.7915C123.377 22.0009 122.334 20.9279 121.586 19.5726C120.838 18.1948 120.464 16.6475 120.464 14.9308C120.464 13.2366 120.838 11.7119 121.586 10.3566C122.334 8.97875 123.377 7.90581 124.714 7.13781C126.051 6.36981 127.57 5.98581 129.269 5.98581C130.946 5.98581 132.454 6.36981 133.791 7.13781C135.128 7.90581 136.17 8.97875 136.918 10.3566C137.666 11.7119 138.04 13.2366 138.04 14.9308C138.04 16.6475 137.666 18.1948 136.918 19.5726C136.17 20.9279 135.128 22.0009 133.791 22.7915C132.454 23.5595 130.946 23.9435 129.269 23.9435ZM129.269 21.6395C130.448 21.6395 131.502 21.3458 132.431 20.7585C133.36 20.1712 134.074 19.3693 134.573 18.3529C135.094 17.3364 135.355 16.1957 135.355 14.9308C135.355 13.6884 135.094 12.559 134.573 11.5425C134.074 10.526 133.36 9.73546 132.431 9.17075C131.502 8.58346 130.448 8.28981 129.269 8.28981C128.091 8.28981 127.037 8.58346 126.108 9.17075C125.179 9.73546 124.453 10.526 123.932 11.5425C123.411 12.559 123.15 13.6884 123.15 14.9308C123.15 16.1957 123.399 17.3364 123.898 18.3529C124.419 19.3693 125.145 20.1712 126.074 20.7585C127.003 21.3458 128.068 21.6395 129.269 21.6395ZM148.906 23.9435C147.319 23.9435 145.857 23.582 144.52 22.8592C143.206 22.1364 142.152 21.0973 141.359 19.742C140.588 18.3868 140.203 16.7943 140.203 14.9646C140.203 13.135 140.588 11.5425 141.359 10.1872C142.152 8.83193 143.206 7.79287 144.52 7.07005C145.857 6.34722 147.319 5.98581 148.906 5.98581C150.9 5.98581 152.611 6.51663 154.039 7.57828C155.467 8.63993 156.396 10.1195 156.827 12.0169H154.243C153.88 10.8197 153.223 9.90487 152.271 9.2724C151.342 8.61734 150.22 8.28981 148.906 8.28981C147.818 8.28981 146.809 8.56087 145.88 9.10299C144.973 9.62252 144.248 10.3905 143.704 11.407C143.16 12.4009 142.888 13.5868 142.888 14.9646C142.888 16.3425 143.16 17.5397 143.704 18.5562C144.248 19.55 144.973 20.318 145.88 20.8602C146.809 21.3797 147.818 21.6395 148.906 21.6395C150.22 21.6395 151.353 21.3119 152.305 20.6569C153.257 19.9792 153.926 19.0192 154.311 17.7769H156.929C156.498 19.6743 155.557 21.1764 154.107 22.2832C152.679 23.39 150.945 23.9435 148.906 23.9435ZM166.119 23.9435C164.056 23.9435 162.357 23.4917 161.019 22.5882C159.682 21.662 158.889 20.3745 158.64 18.7256H161.189C161.439 19.8098 162.005 20.6004 162.889 21.0973C163.773 21.5943 164.85 21.8428 166.119 21.8428C167.32 21.8428 168.328 21.583 169.144 21.0635C169.983 20.5213 170.402 19.8098 170.402 18.9289C170.402 18.0705 170.085 17.4268 169.45 16.9976C168.838 16.5684 167.932 16.2522 166.731 16.0489L164.623 15.71C162.923 15.439 161.609 14.942 160.679 14.2192C159.75 13.4964 159.286 12.4235 159.286 11.0004C159.286 10.0291 159.558 9.17075 160.101 8.42534C160.645 7.65734 161.405 7.05875 162.379 6.62958C163.376 6.2004 164.498 5.98581 165.745 5.98581C167.558 5.98581 169.076 6.40369 170.3 7.23946C171.524 8.05263 172.306 9.24981 172.646 10.831H170.13C169.541 8.97875 168.079 8.05263 165.745 8.05263C164.589 8.05263 163.648 8.3124 162.923 8.83193C162.221 9.35146 161.869 10.0178 161.869 10.831C161.869 11.6216 162.141 12.2089 162.685 12.5929C163.252 12.9543 164.158 13.2366 165.405 13.4399L167.513 13.7788C171.161 14.3209 172.986 15.9698 172.986 18.7256C172.986 19.7646 172.68 20.6795 172.068 21.47C171.479 22.2606 170.663 22.8705 169.62 23.2997C168.578 23.7289 167.411 23.9435 166.119 23.9435Z" fill="#0A0B0D"/>
</g>
<defs>
<clipPath id="clip0_13_1250">
<rect width="173" height="24" fill="white"/>
</clipPath>
</defs>
</svg>
