<svg width="75" height="24" viewBox="0 0 75 24" fill="none" xmlns="http://www.w3.org/2000/svg">
<path d="M11.9802 23.3703C18.2726 23.3703 23.3737 18.2796 23.3737 12.0001C23.3737 5.72049 18.2726 0.629883 11.9802 0.629883C6.01023 0.629883 1.11271 5.21199 0.626312 11.0443H15.686V12.9558H0.626312C1.11271 18.7882 6.01024 23.3703 11.9802 23.3703Z" fill="#0052FF"/>
<path d="M41.616 6.736C45.056 6.736 46.944 9.248 46.944 12.368C46.944 15.504 45.072 18 41.616 18H37.328V6.736H41.616ZM41.632 8.592H39.472V16.144H41.632C43.344 16.144 44.752 14.928 44.752 12.768V11.952C44.752 9.808 43.344 8.592 41.632 8.592ZM52.457 18.224C49.657 18.224 48.249 16.16 48.249 13.808C48.249 11.456 49.673 9.392 52.457 9.392C55.225 9.392 56.649 11.472 56.649 13.808C56.649 16.16 55.241 18.224 52.457 18.224ZM54.569 14.176V13.456C54.569 11.952 53.641 11.104 52.457 11.104C51.257 11.104 50.329 11.984 50.329 13.456V14.176C50.329 15.632 51.257 16.512 52.457 16.512C53.641 16.512 54.569 15.664 54.569 14.176ZM59.9536 13.456V14.192C59.9536 15.648 60.8496 16.528 62.0176 16.528C63.0416 16.528 63.5856 15.904 63.7616 15.2H65.7776C65.4896 17.04 64.1136 18.224 62.0336 18.224C59.2496 18.224 57.8896 16.208 57.8896 13.808C57.8896 11.408 59.2656 9.392 62.0336 9.392C64.1136 9.392 65.5056 10.592 65.7776 12.416H63.7616C63.5856 11.728 63.0416 11.104 62.0176 11.104C60.8496 11.104 59.9536 12 59.9536 13.456ZM66.8401 15.504H68.9681C68.9841 16.352 69.6721 16.72 70.6641 16.72C71.6241 16.72 72.2481 16.352 72.2481 15.68C72.2481 15.024 71.6561 14.784 70.7761 14.672L69.5601 14.512C68.1841 14.32 67.0481 13.648 67.0481 12.048C67.0481 10.352 68.6001 9.376 70.6321 9.376C72.8241 9.376 74.1041 10.512 74.1681 11.984H72.0721C72.0561 11.296 71.5441 10.864 70.5841 10.864C69.6561 10.864 69.1441 11.28 69.1441 11.856C69.1441 12.432 69.5761 12.704 70.2961 12.8L71.5121 12.976C73.0161 13.184 74.3441 13.84 74.3441 15.504C74.3441 17.232 72.7441 18.256 70.6001 18.256C68.3921 18.256 66.8721 17.184 66.8401 15.504Z" fill="#0052FF"/>
</svg>
