<svg width="1832" height="255" viewBox="0 0 1832 255" fill="none" xmlns="http://www.w3.org/2000/svg">
<path d="M11.72 249C4.52 249 0.920003 245.4 0.920003 238.2V79.8C0.920003 72.6 4.52 69 11.72 69H170.12C177.32 69 180.92 72.6 180.92 79.8V238.2C180.92 245.4 177.32 249 170.12 249H11.72ZM351.653 254.4C341.093 254.4 331.373 252.36 322.493 248.28C313.853 243.96 306.893 237.24 301.613 228.12H295.133V249H250.133V0.599979H295.133V90.96H301.613C307.133 81.6 314.573 74.76 323.933 70.44C333.533 65.88 343.613 63.6 354.173 63.6C370.253 63.6 384.413 67.56 396.653 75.48C408.893 83.4 418.373 94.56 425.093 108.96C432.053 123.12 435.533 139.2 435.533 157.2C435.533 175.44 431.813 192 424.373 206.88C417.173 221.76 407.213 233.4 394.493 241.8C381.773 250.2 367.493 254.4 351.653 254.4ZM341.933 214.08C355.853 214.08 367.253 208.92 376.133 198.6C385.013 188.28 389.453 175.08 389.453 159C389.453 142.92 384.893 129.72 375.773 119.4C366.893 109.08 355.613 103.92 341.933 103.92C328.253 103.92 316.973 108.96 308.093 119.04C299.453 129.12 295.133 142.44 295.133 159C295.133 175.56 299.453 188.88 308.093 198.96C316.973 209.04 328.253 214.08 341.933 214.08ZM518.693 254.4C500.933 254.4 486.053 249.36 474.053 239.28C462.053 229.2 456.053 215.88 456.053 199.32C456.053 180.6 462.173 166.92 474.413 158.28C486.653 149.64 503.333 144.24 524.453 142.08L577.373 136.68V126.6C577.373 118.68 574.253 112.32 568.013 107.52C562.013 102.72 553.493 100.32 542.453 100.32C532.133 100.32 523.853 102.48 517.613 106.8C511.373 110.88 507.173 116.52 505.013 123.72H461.813C463.973 105.96 472.133 91.56 486.293 80.52C500.453 69.24 519.173 63.6 542.453 63.6C565.973 63.6 584.573 69.24 598.253 80.52C612.173 91.8 619.133 108.12 619.133 129.48V217.32C619.133 223.32 619.253 229.2 619.493 234.96C619.973 240.48 620.453 244.92 620.933 248.28V249H577.733C577.493 244.92 577.373 238.92 577.373 231H570.893C561.293 246.6 543.893 254.4 518.693 254.4ZM530.933 220.56C540.293 220.56 548.453 218.52 555.413 214.44C562.613 210.12 568.013 204.48 571.613 197.52C575.453 190.56 577.373 183.24 577.373 175.56V166.56L537.773 171.24C525.293 172.68 516.053 175.44 510.053 179.52C504.293 183.6 501.413 189.48 501.413 197.16C501.413 204.36 504.053 210.12 509.333 214.44C514.853 218.52 522.053 220.56 530.933 220.56ZM727.133 254.4C704.333 254.4 685.373 249.12 670.253 238.56C655.373 228 646.733 213.84 644.333 196.08H688.613C691.013 203.52 695.693 209.16 702.653 213C709.853 216.84 718.133 218.76 727.493 218.76C736.613 218.76 744.173 216.96 750.173 213.36C756.413 209.52 759.533 204.36 759.533 197.88C759.533 191.88 756.893 187.56 751.613 184.92C746.333 182.04 738.173 179.64 727.133 177.72L708.053 174.48C689.093 171.36 674.573 165.6 664.493 157.2C654.653 148.56 649.733 136.44 649.733 120.84C649.733 103.56 656.573 89.76 670.253 79.44C683.933 68.88 701.693 63.6 723.533 63.6C744.413 63.6 761.453 68.28 774.653 77.64C788.093 86.76 796.733 99.84 800.573 116.88H757.373C754.973 110.64 750.773 105.96 744.773 102.84C738.773 99.72 731.813 98.16 723.893 98.16C714.773 98.16 707.453 99.96 701.933 103.56C696.413 107.16 693.653 111.72 693.653 117.24C693.653 122.76 695.813 126.84 700.133 129.48C704.453 131.88 711.893 133.92 722.453 135.6L741.533 138.84C760.733 141.96 775.733 147.84 786.533 156.48C797.573 165.12 803.093 177.6 803.093 193.92C803.093 212.64 796.013 227.4 781.853 238.2C767.933 249 749.693 254.4 727.133 254.4ZM915.773 254.4C897.533 254.4 881.453 250.44 867.533 242.52C853.613 234.6 842.813 223.44 835.133 209.04C827.453 194.64 823.613 177.84 823.613 158.64C823.613 139.92 827.573 123.36 835.493 108.96C843.413 94.56 854.333 83.4 868.253 75.48C882.413 67.56 898.373 63.6 916.133 63.6C934.373 63.6 950.093 67.8 963.293 76.2C976.733 84.6 986.933 96.12 993.893 110.76C1001.09 125.4 1004.69 141.96 1004.69 160.44V168.36H867.533C868.493 183 873.533 194.64 882.653 203.28C891.773 211.68 902.813 215.88 915.773 215.88C935.693 215.88 948.893 209.28 955.373 196.08H1001.45C996.653 213.36 986.453 227.4 970.853 238.2C955.253 249 936.893 254.4 915.773 254.4ZM960.773 138.48C959.093 126.72 954.053 117.48 945.653 110.76C937.253 103.8 927.293 100.32 915.773 100.32C903.773 100.32 893.333 103.68 884.453 110.4C875.813 117.12 870.413 126.48 868.253 138.48H960.773ZM1142.52 254.4C1125.72 254.4 1110.72 250.32 1097.52 242.16C1084.56 234 1074.48 222.72 1067.28 208.32C1060.08 193.92 1056.48 177.84 1056.48 160.08C1056.48 141.84 1060.2 125.4 1067.64 110.76C1075.32 96.12 1085.76 84.6 1098.96 76.2C1112.4 67.8 1127.4 63.6 1143.96 63.6C1157.64 63.6 1170 66.72 1181.04 72.96C1192.08 79.2 1200.24 87.96 1205.52 99.24H1210.92V0.599979H1238.28V249H1210.92V218.04H1205.52C1200 229.56 1191.6 238.56 1180.32 245.04C1169.28 251.28 1156.68 254.4 1142.52 254.4ZM1148.28 230.28C1160.04 230.28 1170.72 227.28 1180.32 221.28C1190.16 215.04 1197.84 206.52 1203.36 195.72C1208.88 184.68 1211.64 172.44 1211.64 159C1211.64 145.56 1208.88 133.44 1203.36 122.64C1197.84 111.6 1190.16 103.08 1180.32 97.08C1170.72 90.84 1160.04 87.72 1148.28 87.72C1135.56 87.72 1124.4 90.84 1114.8 97.08C1105.2 103.32 1097.76 111.96 1092.48 123C1087.44 133.8 1084.92 145.8 1084.92 159C1084.92 172.2 1087.56 184.2 1092.84 195C1098.12 205.8 1105.56 214.44 1115.16 220.92C1124.76 227.16 1135.8 230.28 1148.28 230.28ZM1368.91 254.4C1350.91 254.4 1334.83 250.32 1320.67 242.16C1306.51 233.76 1295.47 222.36 1287.55 207.96C1279.63 193.32 1275.67 176.88 1275.67 158.64C1275.67 140.64 1279.63 124.44 1287.55 110.04C1295.47 95.4 1306.51 84 1320.67 75.84C1334.83 67.68 1350.91 63.6 1368.91 63.6C1386.67 63.6 1402.63 67.68 1416.79 75.84C1430.95 84 1441.99 95.4 1449.91 110.04C1457.83 124.44 1461.79 140.64 1461.79 158.64C1461.79 176.88 1457.83 193.32 1449.91 207.96C1441.99 222.36 1430.95 233.76 1416.79 242.16C1402.63 250.32 1386.67 254.4 1368.91 254.4ZM1368.91 229.92C1381.39 229.92 1392.55 226.8 1402.39 220.56C1412.23 214.32 1419.79 205.8 1425.07 195C1430.59 184.2 1433.35 172.08 1433.35 158.64C1433.35 145.44 1430.59 133.44 1425.07 122.64C1419.79 111.84 1412.23 103.44 1402.39 97.44C1392.55 91.2 1381.39 88.08 1368.91 88.08C1356.43 88.08 1345.27 91.2 1335.43 97.44C1325.59 103.44 1317.91 111.84 1312.39 122.64C1306.87 133.44 1304.11 145.44 1304.11 158.64C1304.11 172.08 1306.75 184.2 1312.03 195C1317.55 205.8 1325.23 214.32 1335.07 220.56C1344.91 226.8 1356.19 229.92 1368.91 229.92ZM1576.85 254.4C1560.05 254.4 1544.57 250.56 1530.41 242.88C1516.49 235.2 1505.33 224.16 1496.93 209.76C1488.77 195.36 1484.69 178.44 1484.69 159C1484.69 139.56 1488.77 122.64 1496.93 108.24C1505.33 93.84 1516.49 82.8 1530.41 75.12C1544.57 67.44 1560.05 63.6 1576.85 63.6C1597.97 63.6 1616.09 69.24 1631.21 80.52C1646.33 91.8 1656.17 107.52 1660.73 127.68H1633.37C1629.53 114.96 1622.57 105.24 1612.49 98.52C1602.65 91.56 1590.77 88.08 1576.85 88.08C1565.33 88.08 1554.65 90.96 1544.81 96.72C1535.21 102.24 1527.53 110.4 1521.77 121.2C1516.01 131.76 1513.13 144.36 1513.13 159C1513.13 173.64 1516.01 186.36 1521.77 197.16C1527.53 207.72 1535.21 215.88 1544.81 221.64C1554.65 227.16 1565.33 229.92 1576.85 229.92C1590.77 229.92 1602.77 226.44 1612.85 219.48C1622.93 212.28 1630.01 202.08 1634.09 188.88H1661.81C1657.25 209.04 1647.29 225 1631.93 236.76C1616.81 248.52 1598.45 254.4 1576.85 254.4ZM1759.13 254.4C1737.29 254.4 1719.29 249.6 1705.13 240C1690.97 230.16 1682.57 216.48 1679.93 198.96H1706.93C1709.57 210.48 1715.57 218.88 1724.93 224.16C1734.29 229.44 1745.69 232.08 1759.13 232.08C1771.85 232.08 1782.53 229.32 1791.17 223.8C1800.05 218.04 1804.49 210.48 1804.49 201.12C1804.49 192 1801.13 185.16 1794.41 180.6C1787.93 176.04 1778.33 172.68 1765.61 170.52L1743.29 166.92C1725.29 164.04 1711.37 158.76 1701.53 151.08C1691.69 143.4 1686.77 132 1686.77 116.88C1686.77 106.56 1689.65 97.44 1695.41 89.52C1701.17 81.36 1709.21 75 1719.53 70.44C1730.09 65.88 1741.97 63.6 1755.17 63.6C1774.37 63.6 1790.45 68.04 1803.41 76.92C1816.37 85.56 1824.65 98.28 1828.25 115.08H1801.61C1795.37 95.4 1779.89 85.56 1755.17 85.56C1742.93 85.56 1732.97 88.32 1725.29 93.84C1717.85 99.36 1714.13 106.44 1714.13 115.08C1714.13 123.48 1717.01 129.72 1722.77 133.8C1728.77 137.64 1738.37 140.64 1751.57 142.8L1773.89 146.4C1812.53 152.16 1831.85 169.68 1831.85 198.96C1831.85 210 1828.61 219.72 1822.13 228.12C1815.89 236.52 1807.25 243 1796.21 247.56C1785.17 252.12 1772.81 254.4 1759.13 254.4Z" fill="white"/>
</svg>
