<svg width="844" height="445" viewBox="0 0 844 445" fill="none" xmlns="http://www.w3.org/2000/svg">
<rect width="844" height="445" fill="#582900"/>
<mask id="mask0_4860_635" style="mask-type:luminance" maskUnits="userSpaceOnUse" x="0" y="0" width="844" height="445">
<path d="M844 0H0V445H844V0Z" fill="white"/>
</mask>
<g mask="url(#mask0_4860_635)">
<mask id="mask1_4860_635" style="mask-type:luminance" maskUnits="userSpaceOnUse" x="140" y="186" width="564" height="73">
<path d="M704 186H140V259H704V186Z" fill="white"/>
</mask>
<g mask="url(#mask1_4860_635)">
<path d="M704 233.601C703.911 234.143 703.843 234.688 703.734 235.226C703.274 237.286 702.266 239.21 700.804 240.83C698.82 243.071 696.349 244.909 693.545 246.226C688.025 248.937 682.401 251.45 676.662 253.765C676.343 253.895 676.004 253.982 675.675 254.098C675.429 254.186 675.168 254.21 674.912 254.168C674.656 254.126 674.416 254.02 674.223 253.861C672.834 252.878 671.445 251.898 670.05 250.918C668.353 249.733 666.672 248.532 664.76 247.63C661.061 245.883 657.197 244.617 653 244.325C652.39 244.284 651.784 244.225 651.181 244.136C651.003 244.119 650.835 244.058 650.694 243.957C650.553 243.857 650.445 243.723 650.384 243.569C650.323 243.416 650.31 243.249 650.348 243.089C650.385 242.93 650.471 242.783 650.596 242.666C650.833 242.428 651.092 242.21 651.37 242.014C653.486 240.388 655.595 238.753 657.727 237.143C658.793 236.339 659.907 235.586 660.988 234.799C661.455 234.469 662.037 234.307 662.624 234.342C664.436 234.4 666.228 234.695 667.946 235.218C671.011 236.041 673.972 237.165 676.771 238.571C679.398 239.931 681.879 241.458 683.837 243.597C684.14 243.922 684.479 244.22 684.845 244.486C685.78 245.178 686.641 245.188 687.623 244.242C688.098 243.739 688.453 243.15 688.662 242.514C689.561 240.218 689.132 238.117 687.55 236.174C686.464 234.799 685.085 233.632 683.508 232.74C681.32 231.53 679.111 230.354 676.865 229.242C673.356 227.506 669.794 225.864 666.29 224.126C664.05 223.039 661.947 221.732 660.017 220.228C656.937 217.787 655.217 214.743 655.192 210.994C655.15 208.315 656.221 205.721 658.19 203.739C660.333 201.564 662.953 199.829 665.883 198.648C668.52 197.532 671.236 196.561 673.91 195.51C677.059 194.273 680.265 193.172 683.529 192.205C683.686 192.158 683.847 192.12 683.999 192.061C684.176 191.981 684.38 191.96 684.579 192.001C684.772 192.042 684.949 192.143 685.069 192.288C686.077 193.245 687.096 194.189 688.114 195.138C689.211 196.163 690.281 197.215 691.414 198.206C693.258 199.772 695.404 201.011 697.744 201.863C698.976 202.335 700.183 202.867 701.394 203.379C701.624 203.474 701.833 203.604 702.12 203.753C701.984 203.897 701.838 204.029 701.676 204.148C700.987 204.551 700.308 204.984 699.582 205.328C697.232 206.446 694.856 207.525 692.495 208.631C692.057 208.838 691.555 208.897 691.075 208.795C688.145 208.295 685.289 207.46 682.584 206.309C679.936 205.178 677.67 203.42 676.014 201.217C675.586 200.656 675.137 200.108 674.662 199.582C673.789 198.622 672.693 198.536 671.633 199.311C670.896 199.856 670.291 200.538 669.862 201.312C669.429 202.086 669.183 202.934 669.131 203.802C669.089 204.112 669.131 204.427 669.257 204.718C669.382 205.009 669.586 205.265 669.847 205.464C670.614 206.092 671.439 206.657 672.317 207.15C675.147 208.584 678.014 209.961 680.892 211.324C685.602 213.495 690.182 215.907 694.6 218.549C696.605 219.706 698.454 221.071 700.115 222.619C701.425 223.874 702.444 225.363 703.097 226.993C703.54 228.073 703.802 229.207 703.88 230.358C703.901 230.545 703.943 230.73 704 230.911V233.601Z" fill="white"/>
<path d="M649.555 221.417C649.584 225.471 648.994 229.508 647.804 233.412C646.53 237.829 644.225 241.94 641.049 245.462C638.377 248.507 634.906 250.881 630.96 252.363C629.252 252.971 627.463 253.371 625.64 253.552C624.498 253.677 623.348 253.766 622.198 253.793C619.66 253.794 617.13 253.533 614.656 253.015C611.759 252.48 608.849 251.972 605.923 251.594C604.007 251.343 602.058 251.416 600.171 251.81C598.663 252.163 597.274 252.852 596.127 253.815C595.842 254.041 595.501 254.199 595.135 254.274C594.768 254.35 594.386 254.34 594.024 254.247C593.896 254.234 593.776 254.182 593.684 254.099C593.593 254.016 593.534 253.907 593.519 253.79C593.341 253.165 593.405 252.502 593.7 251.916C593.913 251.488 594.155 251.073 594.423 250.672C595.239 249.517 595.64 248.158 595.573 246.785C595.556 242.987 595.566 239.19 595.559 235.393C595.542 223.339 595.52 211.286 595.495 199.233C595.493 198.168 595.416 197.105 595.356 196.04C595.34 195.782 595.26 195.53 595.121 195.304C594.981 195.079 594.788 194.886 594.554 194.74C593.854 194.276 593.117 193.856 592.397 193.413C591.699 192.983 590.984 192.572 590.313 192.107C589.792 191.737 589.405 191.231 589.202 190.656C589.135 190.518 589.115 190.365 589.144 190.217C589.174 190.068 589.251 189.931 589.366 189.824C589.888 189.332 590.407 188.837 590.956 188.371C591.332 188.052 591.466 188.064 591.844 188.413C593.599 190.014 595.778 191.169 598.167 191.766C599.416 192.066 600.689 192.269 601.974 192.373C605.002 192.68 608.033 192.465 611.063 192.329C614.397 192.178 617.725 191.869 621.069 192.009C625.214 192.122 629.297 192.959 633.098 194.475C634.681 195.131 636.173 195.957 637.543 196.936C639.488 198.316 641.243 199.906 642.77 201.673C643.939 203.037 644.951 204.507 645.792 206.06C647.202 208.64 648.207 211.39 648.776 214.228C649.287 216.596 649.548 219.003 649.555 221.417ZM628.524 224.283C628.583 220.937 628.45 217.59 628.125 214.257C627.966 212.066 627.668 209.885 627.23 207.726C626.631 205.041 625.779 202.432 624.276 200.031C623.587 198.862 622.725 197.785 621.714 196.833C621.178 196.28 620.429 195.938 619.625 195.876C618.734 195.845 617.835 195.834 616.947 195.885C616.568 195.894 616.207 196.036 615.939 196.281C615.671 196.527 615.516 196.858 615.507 197.205C615.441 197.714 615.408 198.225 615.408 198.737C615.391 203.452 615.38 208.167 615.373 212.882C615.345 223.657 615.319 234.431 615.294 245.207C615.294 246.057 615.399 246.907 615.464 247.756C615.464 247.913 615.499 248.069 615.566 248.214C615.633 248.359 615.731 248.49 615.855 248.6C615.979 248.709 616.125 248.794 616.286 248.85C616.446 248.907 616.618 248.932 616.789 248.927C618.716 249.045 620.526 248.766 622.074 247.583C623.853 246.242 625.194 244.478 625.951 242.485C626.933 239.838 627.592 237.098 627.917 234.318C628.346 230.988 628.549 227.636 628.524 224.283Z" fill="white"/>
<path d="M566.487 228.908C566.89 229.211 567.314 229.488 567.757 229.739C569.444 230.537 571.138 231.324 572.849 232.078C574.603 232.852 576.386 233.572 578.144 234.337C579.265 234.825 579.303 234.944 578.966 236.023C578.646 237.048 578.278 238.063 578.025 239.101C577.542 241.039 577.453 243.043 577.762 245.011C578.036 246.737 579.058 248.045 580.516 249.109C582.254 250.379 584.287 250.999 586.461 251.271C587.484 251.4 588.516 251.451 589.547 251.545C589.817 251.569 590.086 251.621 590.514 251.683C590.22 251.93 590.047 252.092 589.855 252.233C588.74 252.987 587.496 253.567 586.175 253.951C583.466 254.851 580.554 255.111 577.707 254.706C576.154 254.47 574.637 254.063 573.19 253.493C570.744 252.607 568.458 251.388 566.41 249.877C564.187 248.259 562.371 246.222 561.085 243.905C560.43 242.606 559.989 241.225 559.775 239.807C559.412 237.81 559.536 235.813 559.684 233.81C559.76 232.789 559.803 231.766 559.861 230.744C559.912 230.358 559.832 229.968 559.633 229.624C559.434 229.281 559.125 229.002 558.748 228.823C558.071 228.485 557.383 228.155 556.676 227.872C555.384 227.417 554.159 226.815 553.029 226.082C552.42 225.649 551.842 225.175 551.258 224.714C551.063 224.561 550.898 224.375 550.7 224.226C550.471 224.054 550.262 223.791 549.912 223.91C549.748 223.974 549.61 224.082 549.516 224.22C549.422 224.358 549.377 224.519 549.387 224.682C549.295 225.958 549.155 227.235 549.139 228.512C549.06 235.231 549.018 241.95 548.956 248.67C548.944 250.077 548.914 251.485 548.882 252.893C548.863 253.725 548.585 254.006 547.664 254.047C546.743 254.088 545.83 254.087 544.913 254.086C540.421 254.082 535.929 254.075 531.437 254.063C531.084 254.071 530.731 254.058 530.381 254.023C529.683 253.934 529.448 253.698 529.425 253.053C529.377 251.71 529.319 250.368 529.314 249.023C529.245 232.491 529.174 215.959 529.1 199.428C529.091 197.711 529.04 195.969 528.434 194.305C528.244 193.782 527.994 193.276 527.765 192.764C527.695 192.607 527.589 192.462 527.523 192.303C527.466 192.202 527.441 192.089 527.451 191.975C527.462 191.862 527.507 191.754 527.582 191.664C527.656 191.573 527.758 191.504 527.874 191.464C527.99 191.424 528.116 191.415 528.237 191.438C529.194 191.537 530.146 191.682 531.1 191.798C534.035 192.154 536.965 192.542 539.906 192.845C541.573 192.96 543.247 192.927 544.906 192.745C546.569 192.62 548.234 192.501 549.901 192.427C553.375 192.233 556.86 192.225 560.335 192.404C563.102 192.581 565.869 192.771 568.566 193.415C571.699 194.119 574.628 195.434 577.154 197.272C578.568 198.365 579.845 199.6 580.959 200.954C581.781 201.913 582.532 202.921 583.313 203.908C584.171 204.977 584.87 206.147 585.389 207.385C585.749 208.262 585.991 209.175 586.112 210.105C586.234 211.296 586.189 212.496 585.976 213.676C585.709 215.499 585.028 217.252 583.977 218.82C583.411 219.632 582.753 220.387 582.013 221.071C580.081 222.894 577.736 224.196 575.225 225.25C572.688 226.316 570.124 227.329 567.576 228.371C567.262 228.5 566.966 228.671 566.487 228.908ZM566.55 209.847C566.578 208.451 566.428 207.058 566.103 205.695C565.646 203.659 564.999 201.688 563.76 199.909C562.567 198.193 561.068 196.783 558.973 195.989C557.33 195.366 555.682 195.329 554.096 196.164C553.586 196.428 553.094 196.718 552.62 197.032C550.719 198.311 549.628 199.923 549.659 202.18C549.728 207.275 549.664 212.372 549.675 217.469C549.695 218.236 549.759 219.002 549.865 219.763C549.91 220.143 550.136 220.232 550.504 220.047C550.79 219.903 551.052 219.718 551.331 219.562C551.935 219.196 552.647 219.009 553.37 219.026C554.094 219.042 554.794 219.262 555.377 219.656C556.624 220.423 556.816 221.902 555.388 222.799C555.119 222.927 554.837 223.032 554.547 223.113C554.158 223.268 554.103 223.57 554.445 223.793C554.696 223.953 554.969 224.079 555.256 224.171C558.276 225.147 561.034 224.405 563.116 222.188C564.296 220.929 564.946 219.419 565.436 217.85C566.208 215.242 566.584 212.549 566.55 209.847Z" fill="white"/>
<path d="M384.361 227.24C384.738 227.224 385.114 227.189 385.488 227.135C386.907 226.816 388.225 226.199 389.339 225.333C391.492 223.739 393.251 221.744 394.5 219.481C396.147 216.686 396.929 213.531 396.761 210.358C396.656 208.822 396.251 207.316 395.568 205.91C395.114 204.952 394.572 204.027 394.065 203.091C393.95 202.882 393.811 202.682 393.693 202.473C393.307 201.788 393.316 201.65 393.927 201.14C396.491 199.004 399.071 196.886 401.832 194.956C403.322 193.915 404.834 192.899 406.336 191.874C406.505 191.757 406.681 191.651 406.865 191.556C406.986 191.486 407.13 191.458 407.271 191.478C407.413 191.498 407.541 191.564 407.634 191.664C407.683 191.71 407.729 191.759 407.773 191.808C409.943 194.222 411.43 196.929 411.835 200.043C412.057 201.741 411.96 203.462 411.547 205.13C410.824 207.985 409.587 210.709 407.885 213.191C406.507 215.234 404.813 217.067 403.238 218.979C402.099 220.362 401.017 221.784 399.934 223.205C399.446 223.844 399.48 223.879 399.962 224.503C405.469 231.629 410.975 238.754 416.48 245.881C416.722 246.196 416.954 246.516 417.175 246.844C417.564 247.419 417.551 247.735 417.04 248.214C416.459 248.773 415.847 249.304 415.205 249.805C411.588 252.616 407.528 254.911 403.163 256.613C402.968 256.687 402.771 256.757 402.572 256.823C401.853 257.057 401.549 256.972 401.168 256.373C400.662 255.579 400.177 254.774 399.696 253.967C396.062 247.896 392.431 241.824 388.802 235.751C388.03 234.458 387.29 233.149 386.51 231.86C386.271 231.493 385.997 231.145 385.694 230.821C385.561 230.671 385.395 230.55 385.206 230.465C385.122 230.414 385.024 230.386 384.923 230.384C384.822 230.381 384.723 230.404 384.636 230.45C384.549 230.496 384.477 230.564 384.429 230.645C384.381 230.726 384.359 230.818 384.365 230.91C384.351 231.08 384.347 231.251 384.353 231.421C384.343 237.372 384.332 243.324 384.32 249.277C384.316 250.599 384.248 251.921 384.233 253.243C384.225 254.077 383.957 254.308 382.995 254.353C382.103 254.394 381.208 254.404 380.315 254.402C375.729 254.393 371.143 254.379 366.557 254.361C366.463 254.361 366.367 254.361 366.275 254.357C365.41 254.302 365.157 254.078 365.15 253.284C365.116 249.317 365.068 245.349 365.068 241.382C365.068 226.918 365.077 212.454 365.096 197.99C365.098 196.369 365.144 194.747 365.172 193.127C365.187 192.218 365.415 192 366.431 191.993C369.206 191.974 371.982 191.964 374.757 191.963C377.46 191.965 380.165 191.99 382.87 192.006C383.035 192.002 383.2 192.007 383.365 192.02C383.579 192.016 383.786 192.088 383.943 192.222C384.099 192.357 384.191 192.542 384.2 192.738C384.23 192.928 384.243 193.119 384.238 193.311C384.269 198.644 384.3 203.977 384.329 209.31C384.35 215.006 384.362 220.701 384.364 226.396C384.364 226.646 384.361 226.898 384.361 227.24Z" fill="white"/>
<path d="M304.487 224.17C304.213 228.142 303.029 232.016 301.014 235.542C298.998 239.067 296.195 242.165 292.786 244.633C288.608 247.726 284.104 250.431 279.341 252.706C278.021 253.32 276.636 253.807 275.208 254.159C274.618 254.312 273.993 254.3 273.41 254.125C271.039 253.433 268.746 252.534 266.563 251.439C263.51 249.923 260.652 248.1 258.041 246.003C256.163 244.486 254.464 242.791 252.975 240.947C250.977 238.439 249.468 235.633 248.513 232.654C247.535 229.729 247.209 226.654 247.553 223.612C247.947 219.909 249.281 216.465 251.017 213.133C253.142 209.061 256.356 205.797 260.182 202.972C265.304 199.189 270.823 195.947 276.513 192.93C277.263 192.532 278.027 192.152 278.773 191.744C278.986 191.612 279.24 191.545 279.496 191.554C279.754 191.562 280.002 191.645 280.205 191.79C283.321 193.622 286.286 195.663 289.074 197.896C291.243 199.598 293.286 201.43 295.19 203.38C297.832 206.186 300.123 209.194 301.65 212.636C302.806 215.156 303.645 217.788 304.148 220.482C304.359 221.697 304.379 222.94 304.487 224.17ZM288.817 231.726C288.744 230.941 288.655 229.773 288.518 228.608C288.444 227.974 288.303 227.346 288.171 226.718C287.376 223.14 286.016 219.686 284.135 216.467C281.246 211.384 277.324 206.853 272.579 203.118C271.642 202.406 270.657 201.75 269.63 201.154C269.032 200.79 268.635 200.865 268.095 201.283C267.934 201.407 267.789 201.548 267.661 201.701C266.871 202.654 266.042 203.584 265.311 204.575C263.817 206.522 262.8 208.742 262.33 211.082C261.653 214.755 261.891 218.521 263.028 222.098C264.255 225.911 266.021 229.56 268.281 232.954C271.622 238.165 276.17 242.642 281.605 246.069C281.798 246.19 281.994 246.309 282.198 246.413C282.319 246.483 282.459 246.519 282.601 246.516C282.743 246.514 282.881 246.473 282.998 246.399C283.195 246.284 283.385 246.16 283.569 246.027C285.037 244.852 286.158 243.358 286.83 241.681C288.173 238.613 288.656 235.391 288.817 231.726Z" fill="white"/>
<path d="M468.011 226.663C467.91 223.731 468.4 220.806 469.457 218.036C470.172 216.003 471.088 214.034 472.196 212.155C473.565 209.835 475.307 207.718 477.364 205.874C480.529 203.052 484.079 200.66 487.719 198.386C491.283 196.161 494.99 194.137 498.744 192.188C498.908 192.103 499.072 192.02 499.239 191.944C499.411 191.85 499.61 191.805 499.81 191.814C500.01 191.823 500.203 191.885 500.364 191.994C500.847 192.299 501.343 192.584 501.832 192.879C506.124 195.498 510.101 198.527 513.694 201.915C516.625 204.599 519.074 207.689 520.952 211.072C521.929 212.94 522.73 214.88 523.348 216.872C524.041 218.887 524.448 220.975 524.562 223.086C524.61 224.429 524.519 225.773 524.29 227.1C523.464 231.824 521.353 236.282 518.151 240.061C516.658 241.797 514.939 243.36 513.034 244.715C508.907 247.797 504.449 250.487 499.73 252.745C498.433 253.349 497.072 253.831 495.669 254.184C495.035 254.353 494.36 254.341 493.734 254.149C491.367 253.446 489.079 252.539 486.899 251.44C483.914 249.946 481.118 248.155 478.562 246.1C476.72 244.611 475.051 242.95 473.583 241.146C471.566 238.627 470.039 235.806 469.07 232.81C468.37 230.825 468.014 228.75 468.011 226.663ZM508.936 232.117C508.972 231.394 508.968 230.669 508.924 229.945C508.606 227.166 507.934 224.43 506.92 221.795C505.774 218.777 504.08 215.994 502.281 213.269C500.043 209.878 497.173 206.948 494.023 204.238C492.85 203.186 491.554 202.257 490.157 201.468C489.35 201.032 488.92 201.084 488.3 201.712C487.783 202.235 487.297 202.786 486.834 203.348C484.398 206.312 482.782 209.558 482.512 213.31C482.273 216.313 482.603 219.331 483.487 222.232C484.697 226.049 486.462 229.701 488.735 233.088C491.497 237.272 494.79 241.053 499.03 244.1C500.098 244.867 501.19 245.608 502.294 246.334C502.795 246.665 503.086 246.632 503.576 246.31C503.709 246.223 503.826 246.118 503.95 246.019C505.641 244.666 506.681 242.93 507.394 241.035C508.472 238.168 508.994 235.15 508.936 232.117Z" fill="white"/>
<path d="M338.596 253.903C336.103 253.852 333.618 253.611 331.168 253.18C329.093 252.799 327.114 252.061 325.337 251.006C323.818 250.114 322.316 249.196 320.796 248.304C320.454 248.121 320.099 247.958 319.733 247.816C319.499 247.711 319.235 247.676 318.979 247.716C318.722 247.756 318.486 247.871 318.304 248.042C317.867 248.396 317.463 248.784 317.095 249.2C315.847 250.641 314.604 252.089 313.403 253.565C313.258 253.795 313.044 253.982 312.787 254.105C312.529 254.228 312.239 254.282 311.95 254.26C311.271 254.214 310.587 254.251 309.905 254.24C309.732 254.248 309.561 254.212 309.41 254.136C309.259 254.059 309.134 253.946 309.05 253.808C308.966 253.67 308.926 253.513 308.934 253.355C308.943 253.197 309 253.045 309.098 252.915C309.246 252.674 309.436 252.453 309.607 252.225C311.13 250.199 312.664 248.18 314.176 246.145C314.408 245.877 314.578 245.568 314.676 245.237C314.774 244.906 314.797 244.561 314.744 244.221C314.689 243.907 314.585 243.602 314.436 243.315C313.631 241.893 312.789 240.49 311.979 239.07C310.16 235.866 308.882 232.428 308.187 228.873C307.71 226.609 307.511 224.304 307.593 222C307.703 219.783 308.047 217.581 308.621 215.425C309.868 210.603 312.331 206.115 315.813 202.321C317.253 200.685 318.86 199.179 320.613 197.823C323.827 195.358 327.637 193.63 331.726 192.78C334.362 192.217 337.08 192.042 339.777 192.26C341.975 192.476 344.136 192.935 346.213 193.625C348.228 194.271 350.229 194.956 352.236 195.624C352.39 195.675 352.548 195.719 352.7 195.776C354.232 196.349 355.598 196.012 356.853 195.135C357.262 194.85 357.63 194.515 358.023 194.211C358.451 193.879 358.876 193.54 359.325 193.232C359.902 192.835 360.208 192.827 360.794 193.193C361.043 193.353 361.266 193.543 361.457 193.759C361.681 193.968 361.82 194.241 361.848 194.532C361.878 194.823 361.796 195.115 361.618 195.357C360.854 196.456 360.146 197.595 359.293 198.635C356.429 202.124 353.517 205.581 350.613 209.043C346.257 214.237 341.895 219.427 337.527 224.612C335.069 227.524 332.612 230.439 330.076 233.295C328.495 235.076 328.157 237.028 328.655 239.188C329.459 242.864 331.811 246.103 335.203 248.202C338.476 250.301 342.944 250.238 346.34 248.152C349.124 246.443 350.772 244.025 351.736 241.178C352.002 240.388 352.123 239.556 352.308 238.744C352.347 238.577 352.363 238.405 352.419 238.243C352.55 237.865 352.728 237.773 353.162 237.868C353.437 237.921 353.707 237.998 353.967 238.098C356.04 238.955 358.119 239.799 360.17 240.697C360.98 241.052 361.007 241.253 360.795 242.033C360.415 243.384 359.703 244.637 358.713 245.696C356.252 248.447 353.106 250.616 349.539 252.022C347.414 252.839 345.169 253.365 342.877 253.585C341.456 253.734 340.023 253.798 338.596 253.903ZM327.36 221.148C327.36 222.673 327.331 223.804 327.37 224.933C327.398 225.72 327.48 226.505 327.617 227.282C327.722 227.877 328.058 227.971 328.615 227.631C328.852 227.493 329.071 227.33 329.267 227.146C329.777 226.646 330.302 226.153 330.754 225.612C332.442 223.59 334.06 221.519 335.783 219.523C338.362 216.592 340.775 213.541 343.011 210.382C343.999 209.033 344.731 207.54 345.174 205.967C345.631 204.183 345.689 202.439 344.967 200.69C343.816 197.907 341.184 196.585 338.19 196.777C336.26 196.9 334.757 197.844 333.421 199.032C332.296 200.093 331.392 201.334 330.756 202.693C329.462 205.321 328.6 208.109 328.198 210.967C327.701 214.343 327.421 217.742 327.36 221.148Z" fill="white"/>
<path d="M240.75 212.461C240.511 213.114 240.292 213.606 240.15 214.116C239.672 215.989 239.592 217.928 239.91 219.83C240.481 223.549 241.447 227.208 242.794 230.755C244.455 235.306 246.103 239.864 247.885 244.375C248.891 246.921 250.157 249.381 251.304 251.879C251.449 252.193 251.601 252.507 251.723 252.829C251.98 253.51 251.698 254.005 250.923 254.081C249.688 254.201 248.444 254.305 247.203 254.312C233.469 254.393 219.736 254.463 206.002 254.521C204.943 254.526 203.885 254.548 202.827 254.553C202.38 254.555 201.933 254.542 201.488 254.518C200.793 254.481 200.718 254.416 200.683 253.806C200.652 253.273 200.633 252.74 200.631 252.207C200.566 233.093 200.503 213.98 200.441 194.866C200.438 194.099 200.45 193.331 200.477 192.563C200.499 191.865 200.732 191.656 201.5 191.627C202.064 191.605 202.629 191.603 203.193 191.604C208.132 191.612 213.07 191.622 218.009 191.633C218.056 191.633 218.103 191.634 218.15 191.635C219.176 191.663 219.397 191.841 219.407 192.772C219.441 196.419 219.481 200.067 219.479 203.714C219.473 216.108 219.459 228.502 219.438 240.897C219.438 242.731 219.476 244.565 219.518 246.399C219.533 247.059 219.597 247.72 219.68 248.376C219.711 248.742 219.861 249.092 220.111 249.38C220.36 249.667 220.699 249.88 221.081 249.989C221.435 250.105 221.802 250.185 222.175 250.225C223.859 250.404 225.559 250.409 227.244 250.242C228.277 250.153 229.27 249.828 230.131 249.297C230.731 248.922 231.336 248.55 231.906 248.14C234.384 246.403 237.054 244.907 239.87 243.677C240.711 243.297 241.54 242.894 242.36 242.479C242.623 242.338 242.864 242.166 243.076 241.966C243.229 241.848 243.341 241.692 243.401 241.516C243.462 241.342 243.466 241.155 243.416 240.977C243.242 240.403 243.081 239.823 242.855 239.265C241.575 236.104 240.371 232.922 239.353 229.681C238.23 226.203 237.51 222.627 237.205 219.011C237.066 217.178 237.054 215.342 237.61 213.549C237.945 212.277 238.601 211.094 239.526 210.097C240.149 209.503 240.974 209.122 241.865 209.017C242.756 208.911 243.66 209.086 244.427 209.514C244.967 209.856 245.36 210.361 245.539 210.94C245.718 211.519 245.67 212.137 245.405 212.687C245.179 213.066 244.826 213.369 244.399 213.552C243.972 213.735 243.492 213.789 243.029 213.705C242.473 213.611 241.955 213.378 241.533 213.032C241.328 212.867 241.107 212.719 240.75 212.461Z" fill="white"/>
<path d="M461.378 212.724C461.218 213.075 461.073 213.336 460.978 213.612C460.355 215.54 460.187 217.567 460.483 219.559C461.014 223.908 462.42 228.064 463.862 232.213C466.188 238.904 468.735 245.52 471.895 251.932C472.063 252.261 472.211 252.598 472.335 252.943C472.393 253.062 472.42 253.191 472.411 253.321C472.403 253.451 472.361 253.577 472.287 253.689C472.215 253.8 472.114 253.895 471.993 253.963C471.872 254.031 471.735 254.072 471.594 254.082C470.642 254.213 469.683 254.29 468.721 254.311C460.491 254.377 452.262 254.429 444.031 254.469C437.024 254.508 430.016 254.543 423.008 254.573C421.617 254.58 421.6 254.568 421.591 253.286C421.536 243.068 421.485 232.851 421.436 222.635C421.391 213.697 421.347 204.76 421.305 195.822C421.3 194.884 421.315 193.945 421.331 193.007C421.345 192.115 421.569 191.885 422.527 191.885C427.982 191.882 433.437 191.885 438.892 191.895C439.033 191.892 439.175 191.9 439.314 191.919C439.888 192.01 440.082 192.19 440.158 192.709C440.179 192.878 440.188 193.049 440.187 193.22C440.202 194.094 440.225 194.968 440.225 195.843C440.23 210.839 440.236 225.834 440.241 240.83C440.241 242.919 440.317 245.009 440.372 247.099C440.383 247.524 440.451 247.948 440.49 248.373C440.512 248.762 440.667 249.135 440.933 249.439C441.2 249.742 441.565 249.96 441.975 250.062C442.399 250.188 442.839 250.266 443.284 250.293C445.138 250.417 447 250.524 448.826 250.116C449.482 249.959 450.111 249.72 450.696 249.406C451.36 249.042 451.993 248.635 452.592 248.186C455.068 246.445 457.735 244.946 460.55 243.714C461.203 243.419 461.858 243.128 462.492 242.807C462.858 242.617 463.205 242.398 463.53 242.153C463.732 242.021 463.883 241.834 463.963 241.619C464.043 241.403 464.047 241.171 463.975 240.953C463.813 240.42 463.651 239.885 463.439 239.367C462.107 236.087 460.866 232.781 459.828 229.412C458.707 225.867 458.017 222.219 457.772 218.536C457.616 216.852 457.786 215.157 458.275 213.529C458.614 212.347 459.234 211.249 460.091 210.313C460.718 209.709 461.553 209.321 462.455 209.214C463.357 209.106 464.273 209.286 465.048 209.722C465.575 210.065 465.957 210.563 466.128 211.133C466.301 211.704 466.252 212.311 465.992 212.853C465.754 213.266 465.366 213.59 464.895 213.769C464.424 213.948 463.9 213.97 463.413 213.832C462.936 213.665 462.484 213.445 462.065 213.178C461.852 213.066 461.661 212.915 461.378 212.724Z" fill="white"/>
<path d="M142.997 188.07C144.271 188.489 144.663 189.221 145.021 190.39C145.09 190.616 145.176 190.838 145.266 191.058C145.532 191.814 146.059 192.471 146.767 192.929C147.476 193.387 148.327 193.622 149.194 193.599C150.419 193.566 151.641 193.464 152.853 193.294C156.593 192.833 160.321 192.293 164.066 191.875C166.927 191.551 169.813 191.46 172.692 191.604C175.945 191.792 179.149 192.419 182.202 193.465C185.427 194.505 188.435 196.042 191.097 198.009C192.297 198.873 193.371 199.876 194.292 200.992C195.438 202.445 196.018 204.11 196.426 205.833C196.54 206.313 196.628 206.797 196.74 207.277C196.796 207.454 196.784 207.643 196.705 207.813C196.627 207.982 196.488 208.122 196.31 208.209C195.171 208.853 194.064 209.548 192.886 210.129C191.096 210.945 189.413 211.946 187.871 213.112C187.55 213.363 187.248 213.634 186.969 213.924C186.62 214.3 186.635 214.457 187.036 214.792C187.661 215.313 188.309 215.811 188.944 216.322C191.079 218.039 193.22 219.749 195.339 221.479C195.899 221.936 196.392 222.459 196.923 222.945C197.09 223.095 197.221 223.275 197.309 223.473C197.396 223.672 197.438 223.885 197.431 224.099C197.419 229.995 197.435 235.891 197.393 241.786C197.342 243.555 196.687 245.266 195.521 246.677C193.498 249.322 190.649 251.344 187.348 252.478C185.274 253.259 183.084 253.747 180.85 253.926C179.413 254 177.972 254.005 176.534 253.941C173.802 253.816 171.081 253.534 168.387 253.095C166.203 252.756 164.032 252.356 161.851 252C159.437 251.591 156.983 251.409 154.528 251.456C152.785 251.548 151.059 251.818 149.382 252.262C148.468 252.475 147.558 252.697 146.641 252.902C146.093 253.024 145.924 252.95 145.621 252.553C145.549 252.483 145.504 252.393 145.491 252.298C145.478 252.202 145.499 252.105 145.55 252.02C145.596 251.946 145.622 251.862 145.67 251.789C146.629 250.324 146.885 248.727 146.881 247.05C146.867 239.83 146.888 232.609 146.899 225.389C146.91 218.297 146.922 211.205 146.935 204.113C146.935 202.575 146.871 201.037 146.852 199.499C146.857 199.015 146.75 198.536 146.538 198.093C146.327 197.65 146.016 197.252 145.625 196.927C144.886 196.302 144.067 195.756 143.295 195.163C142.478 194.589 141.701 193.969 140.968 193.306C140.547 192.885 140.25 192.373 140.104 191.818C139.957 191.263 139.966 190.683 140.13 190.132C140.206 189.679 140.418 189.255 140.741 188.906C141.064 188.556 141.487 188.295 141.962 188.152C142.093 188.106 142.23 188.073 142.37 188.055C142.578 188.023 142.791 188.028 142.997 188.07ZM166.405 237.199H166.419C166.419 240.208 166.42 243.218 166.422 246.228C166.422 246.546 166.469 246.865 166.498 247.183C166.527 247.507 166.654 247.816 166.864 248.078C167.074 248.339 167.359 248.542 167.687 248.663C168.072 248.824 168.478 248.937 168.896 248.998C169.996 249.139 171.114 249.11 172.203 248.913C173.231 248.771 174.212 248.422 175.075 247.891C176.348 247.1 177.023 245.946 177.435 244.646C177.805 243.321 177.992 241.959 177.993 240.591C178.07 238.501 178.133 236.407 178.109 234.317C178.082 231.928 177.997 229.54 177.853 227.153C177.804 225.718 177.412 224.309 176.705 223.027C176.18 222.121 175.456 221.423 174.291 221.222C173.285 221.039 172.24 221.208 171.363 221.696C169.591 222.658 168.242 224.025 167.041 225.516C166.797 225.855 166.639 226.241 166.579 226.644C166.47 227.232 166.415 227.829 166.414 228.426C166.398 231.35 166.405 234.275 166.405 237.199ZM166.209 206.696H166.273C166.273 209.75 166.261 212.805 166.281 215.859C166.278 216.564 166.343 217.267 166.476 217.961C166.664 218.875 167.199 219.119 168.176 218.842C168.31 218.803 168.442 218.757 168.57 218.702C169.627 218.276 170.606 217.706 171.476 217.011C173.938 214.975 175.821 212.42 176.963 209.567C178.289 206.477 178.423 203.064 177.344 199.894C177.064 198.994 176.582 198.157 175.93 197.437C175.277 196.717 174.468 196.129 173.553 195.712C171.997 195.015 170.252 194.752 168.535 194.956C168.093 195.015 167.666 195.146 167.275 195.344C166.961 195.47 166.695 195.678 166.511 195.942C166.327 196.207 166.234 196.515 166.241 196.829C166.238 197.212 166.211 197.596 166.21 197.981C166.207 200.887 166.207 203.792 166.209 206.696Z" fill="white"/>
</g>
</g>
</svg>
