<svg width="844" height="445" viewBox="0 0 844 445" fill="none" xmlns="http://www.w3.org/2000/svg">
<rect width="844" height="445" fill="#6B1C01"/>
<mask id="mask0_4860_663" style="mask-type:luminance" maskUnits="userSpaceOnUse" x="0" y="0" width="844" height="445">
<path d="M844 0H0V445H844V0Z" fill="white"/>
</mask>
<g mask="url(#mask0_4860_663)">
<g style="mix-blend-mode:luminosity">
<path d="M430.926 234.011C431.491 237.641 433.203 240.665 436.063 243.084C438.961 245.466 442.837 246.657 447.692 246.657C451.493 246.657 454.786 246.071 457.571 244.899C460.393 243.689 462.82 242.101 464.853 240.135L470.836 248.415C467.449 251.817 463.856 254.142 460.055 255.39C456.291 256.637 452.17 257.261 447.692 257.261C443.627 257.261 439.845 256.58 436.346 255.219C432.846 253.859 429.816 251.968 427.257 249.549C424.698 247.092 422.685 244.181 421.217 240.816C419.787 237.451 419.072 233.709 419.072 229.588C419.072 225.581 419.731 221.895 421.047 218.53C422.402 215.128 424.284 212.198 426.693 209.741C429.139 207.246 432.055 205.318 435.442 203.957C438.829 202.558 442.574 201.859 446.676 201.859C450.928 201.859 454.786 202.596 458.248 204.07C461.71 205.507 464.664 207.605 467.111 210.365C469.595 213.124 471.533 216.508 472.925 220.515C474.317 224.485 475.014 228.983 475.014 234.011H430.926ZM461.804 223.691C461.202 220.288 459.452 217.566 456.555 215.525C453.657 213.446 450.364 212.406 446.676 212.406C442.988 212.406 439.676 213.446 436.741 215.525C433.805 217.566 432.036 220.288 431.434 223.691H461.804ZM517.164 255.957H481.826V245.409H493.342V192.559H481.826V181.955H505.027V245.409H517.164V255.957ZM575.657 240.135C575.657 243.576 574.885 246.373 573.343 248.528C571.799 250.683 569.805 252.422 567.359 253.745C564.949 255.068 562.242 255.975 559.229 256.467C556.257 256.996 553.34 257.261 550.482 257.261C545.7 257.261 540.94 256.562 536.199 255.163C531.457 253.764 527.355 251.93 523.894 249.662L528.746 240.022C532.888 242.442 536.669 244.162 540.094 245.182C543.555 246.165 547.017 246.657 550.482 246.657C555.183 246.657 558.608 246.165 560.756 245.182C562.9 244.162 563.971 242.763 563.971 240.986C563.971 240.117 563.669 239.398 563.069 238.831C562.466 238.264 561.469 237.754 560.075 237.3C558.685 236.809 556.842 236.336 554.546 235.883C552.288 235.391 549.463 234.881 546.079 234.351C543.368 233.898 540.789 233.35 538.343 232.707C535.934 232.026 533.808 231.082 531.965 229.872C530.122 228.662 528.636 227.131 527.506 225.278C526.414 223.426 525.869 221.101 525.869 218.303C525.869 215.468 526.583 213.011 528.014 210.932C529.482 208.815 531.38 207.076 533.715 205.715C536.085 204.354 538.74 203.371 541.675 202.766C544.611 202.161 547.546 201.859 550.482 201.859C554.62 201.859 558.629 202.407 562.503 203.503C566.417 204.562 569.842 206.093 572.777 208.096L568.149 217.169C565.214 215.317 562.352 214.07 559.568 213.427C556.82 212.746 553.792 212.406 550.482 212.406C549.088 212.406 547.639 212.482 546.134 212.633C544.629 212.784 543.236 213.087 541.956 213.54C540.676 213.956 539.605 214.542 538.74 215.298C537.909 216.017 537.497 216.905 537.497 217.963C537.497 219.362 538.719 220.515 541.165 221.423C543.651 222.292 547.866 223.161 553.811 224.031C557.048 224.485 560.002 225.071 562.672 225.789C565.346 226.469 567.642 227.415 569.562 228.624C571.479 229.796 572.965 231.327 574.02 233.217C575.112 235.07 575.657 237.376 575.657 240.135ZM583.872 240.759C583.872 237.659 584.703 234.956 586.359 232.65C588.014 230.306 590.177 228.359 592.851 226.81C595.559 225.26 598.645 224.107 602.106 223.351C605.608 222.557 609.165 222.16 612.777 222.16C614.771 222.16 616.482 222.197 617.912 222.273C619.343 222.349 620.792 222.462 622.26 222.613V220.515C622.26 217.755 621.186 215.695 619.042 214.334C616.934 212.973 614.149 212.293 610.688 212.293C607.528 212.293 604.309 212.746 601.035 213.654C597.762 214.523 594.657 215.809 591.722 217.51L586.98 208.323C590.442 206.32 594.146 204.751 598.1 203.617C602.088 202.445 606.285 201.859 610.688 201.859C613.546 201.859 616.352 202.18 619.097 202.823C621.885 203.465 624.368 204.524 626.549 205.998C628.771 207.473 630.54 209.401 631.857 211.782C633.174 214.126 633.832 217.037 633.832 220.515V255.957H622.26V248.188C620.417 251.061 617.688 253.291 614.076 254.879C610.5 256.467 606.642 257.261 602.503 257.261C599.943 257.261 597.515 256.902 595.22 256.183C592.962 255.503 591.005 254.463 589.349 253.065C587.694 251.666 586.359 249.946 585.34 247.904C584.362 245.825 583.872 243.443 583.872 240.759ZM605.494 246.77C607.789 246.77 609.934 246.487 611.931 245.92C613.962 245.315 615.749 244.502 617.291 243.481C618.836 242.423 620.039 241.156 620.906 239.682C621.808 238.208 622.26 236.582 622.26 234.805V232.821C620.417 232.518 618.685 232.348 617.066 232.31C615.448 232.272 614.017 232.253 612.777 232.253C607.057 232.253 602.728 233.009 599.792 234.522C596.894 236.034 595.445 237.905 595.445 240.135C595.445 244.559 598.796 246.77 605.494 246.77Z" fill="white"/>
<mask id="mask1_4860_663" style="mask-type:luminance" maskUnits="userSpaceOnUse" x="210" y="154" width="180" height="137">
<g style="mix-blend-mode:luminosity">
<path d="M389.778 154.5H210.168V290.5H389.778V154.5Z" fill="white"/>
</g>
</mask>
<g mask="url(#mask1_4860_663)">
<path d="M389.776 225.685C389.776 237.451 384.92 248.162 377.129 254.201C377.343 253.372 377.524 252.532 377.706 251.671V251.649C377.791 251.23 377.866 250.799 377.94 250.369C378.015 249.927 378.09 249.486 378.154 249.044C378.218 248.603 378.282 248.151 378.335 247.699C378.389 247.333 378.431 246.978 378.463 246.601C378.517 246.149 378.56 245.697 378.592 245.223C378.645 244.663 378.677 244.093 378.709 243.511C378.741 242.855 378.773 242.241 378.794 241.649C378.816 241.068 378.826 240.508 378.826 239.981V239.076C378.848 237.096 378.869 233.985 378.698 230.099C378.677 229.733 378.666 229.356 378.645 228.968C378.624 228.581 378.602 228.193 378.581 227.795C378.538 227.106 378.496 226.396 378.431 225.674C378.41 225.405 378.389 225.136 378.367 224.856C378.314 224.232 378.26 223.586 378.196 222.929C378.058 221.508 377.898 220.045 377.695 218.548C377.567 217.612 377.428 216.664 377.279 215.696C377.055 214.221 376.788 212.725 376.478 211.196C376.372 210.69 376.265 210.173 376.158 209.657C376.041 209.108 375.923 208.548 375.795 207.999C375.688 207.568 375.582 207.127 375.475 206.686C375.347 206.115 375.197 205.544 375.037 204.974C374.899 204.447 374.76 203.919 374.611 203.392C374.429 202.713 374.226 202.025 374.002 201.336C373.896 200.959 373.778 200.582 373.65 200.205C373.479 199.667 373.308 199.139 373.127 198.601C372.946 198.074 372.753 197.536 372.561 196.997C372.199 195.964 371.804 194.931 371.377 193.897C371.366 193.865 371.355 193.833 371.334 193.8C382.199 198.182 389.776 210.981 389.776 225.685Z" fill="#D80012"/>
<path d="M229.998 193.297C229.731 193.878 229.464 194.459 229.208 195.04C228.685 196.203 228.194 197.365 227.757 198.528C227.554 199.034 227.362 199.54 227.17 200.046C227.106 200.196 227.052 200.358 226.999 200.509C226.817 201.004 226.636 201.51 226.465 202.005C226.262 202.586 226.07 203.168 225.878 203.749C225.302 205.482 224.79 207.194 224.341 208.894C224.181 209.454 224.032 210.025 223.893 210.584C223.754 211.144 223.616 211.704 223.487 212.253C223.349 212.813 223.221 213.361 223.103 213.911C222.932 214.643 222.783 215.375 222.644 216.096C222.602 216.257 222.57 216.419 222.548 216.58C222.399 217.301 222.271 218.023 222.143 218.733C221.961 219.777 221.791 220.811 221.641 221.812C221.107 225.332 220.777 228.583 220.574 231.446C220.51 232.178 220.467 232.889 220.435 233.578C220.424 233.653 220.424 233.728 220.424 233.803C220.403 234.116 220.392 234.417 220.382 234.708C220.36 235.192 220.339 235.655 220.328 236.096C220.307 236.818 220.286 237.496 220.286 238.12C220.264 238.766 220.264 239.358 220.264 239.896C220.264 240.434 220.264 241.005 220.296 241.608C220.307 241.899 220.318 242.211 220.328 242.523C220.328 242.846 220.36 243.169 220.371 243.513C220.414 244.321 220.478 245.117 220.552 245.903C220.574 246.14 220.595 246.377 220.627 246.613C220.67 247.076 220.723 247.528 220.787 247.97C220.915 248.993 221.065 250.004 221.257 250.984C221.332 251.382 221.406 251.77 221.492 252.157C221.566 252.545 221.652 252.932 221.748 253.309C214.597 247.119 210.168 236.774 210.168 225.687C210.168 210.358 218.493 197.096 229.998 193.297Z" fill="#D80012"/>
<path d="M375.617 239.045V239.971C375.607 240.983 375.575 242.07 375.5 243.33C375.446 244.32 375.372 245.299 375.276 246.247C374.977 249.099 374.486 251.758 373.782 254.309C373.739 254.449 373.696 254.6 373.654 254.74C373.6 254.977 373.526 255.214 373.44 255.44C373.334 255.795 373.205 256.161 373.077 256.505C373.045 256.591 373.024 256.667 372.992 256.742C372.906 256.957 372.832 257.173 372.746 257.377C371.38 260.854 369.321 264.127 366.578 267.152C346.694 291.124 300.098 290.522 299.638 290.489H299.468C299.009 290.522 252.391 291.114 232.465 267.098C229.637 263.976 227.502 260.51 226.125 256.796C225.816 255.978 225.549 255.149 225.314 254.309C224.727 252.189 224.29 249.993 223.98 247.668C223.799 246.279 223.671 244.836 223.585 243.34C223.521 242.027 223.489 240.94 223.489 239.885C223.468 234.75 223.863 224.502 226.638 212.844C226.915 211.714 227.203 210.562 227.523 209.399C228.324 206.482 229.274 203.522 230.405 200.551C230.864 199.356 231.344 198.161 231.856 196.977C232.379 195.782 232.924 194.609 233.489 193.425C233.788 192.833 234.076 192.251 234.386 191.66C247.225 166.998 269.873 154.5 301.698 154.5C333.524 154.5 355.542 167.084 366.994 191.896C369.011 196.245 370.548 200.702 371.743 205.061C375.778 219.906 375.66 233.695 375.617 239.045Z" fill="#D80012"/>
<path d="M223.978 247.667C224.277 249.992 224.714 252.188 225.301 254.309H225.312C224.725 252.188 224.287 249.992 223.978 247.667ZM223.903 229.97C223.924 229.755 223.946 229.55 223.967 229.324C223.988 229.044 224.02 228.754 224.042 228.473C223.988 228.99 223.946 229.485 223.903 229.97ZM223.508 237.311C223.54 235.772 223.615 233.964 223.754 231.95C223.593 234.104 223.529 236.02 223.497 237.634V237.903C223.476 238.625 223.476 239.292 223.476 239.884C223.476 240.939 223.508 242.026 223.583 243.34C223.519 242.026 223.487 240.939 223.487 239.884C223.487 239.4 223.487 238.883 223.497 238.312C223.497 237.989 223.508 237.656 223.508 237.311ZM223.497 237.634V238.312C223.497 237.989 223.508 237.656 223.508 237.311C223.508 237.419 223.508 237.526 223.497 237.634Z" fill="white"/>
<path d="M265.661 218.819C259.897 219.39 253.611 219.325 246.759 218.754H246.716C244.443 218.442 242.319 219.96 241.839 222.231C240.078 230.617 238.296 239.024 238.317 247.13C238.317 248.045 238.349 248.949 238.403 249.854C238.573 252.803 239 255.709 239.811 258.551C240.964 262.567 243.045 265.99 245.777 268.907C261.754 287.583 298.084 287.4 299.909 287.304C301.734 287.4 338.064 287.583 354.041 268.907C356.762 265.99 358.854 262.567 360.007 258.551C360.818 255.709 361.245 252.792 361.416 249.843C361.469 248.96 361.501 248.077 361.501 247.195C361.533 239.078 359.751 230.649 357.979 222.242C357.499 219.982 355.385 218.464 353.101 218.765H353.059C346.207 219.336 339.921 219.4 334.158 218.83C328.277 217.958 321.052 214.212 314.744 210.24C305.64 204.524 294.157 204.524 285.053 210.24C278.745 214.201 271.52 217.947 265.639 218.819H265.661Z" fill="white"/>
<path d="M265.784 251.232C270.437 251.232 274.215 247.432 274.215 242.728C274.215 238.023 270.437 234.224 265.784 234.224C261.13 234.224 257.353 238.023 257.353 242.728C257.353 247.432 261.13 251.232 265.784 251.232Z" fill="#D80012"/>
<path d="M333.617 251.232C338.271 251.232 342.049 247.432 342.049 242.728C342.049 238.023 338.271 234.224 333.617 234.224C328.964 234.224 325.186 238.023 325.186 242.728C325.186 247.432 328.964 251.232 333.617 251.232Z" fill="#D80012"/>
<path d="M288.515 260.306L310.447 260.252C310.447 260.252 312.048 274.397 298.686 274.031C286.818 273.697 288.526 260.306 288.526 260.306H288.515Z" fill="#D80012"/>
<path d="M299.157 199.544C307.558 199.544 314.369 192.703 314.369 184.263C314.369 175.824 307.558 168.983 299.157 168.983C290.756 168.983 283.945 175.824 283.945 184.263C283.945 192.703 290.756 199.544 299.157 199.544Z" fill="white"/>
<path d="M299.158 194.961C305.038 194.961 309.806 190.172 309.806 184.264C309.806 178.357 305.038 173.568 299.158 173.568C293.277 173.568 288.509 178.357 288.509 184.264C288.509 190.172 293.277 194.961 299.158 194.961Z" fill="#D80012"/>
<path d="M299.156 190.374C302.516 190.374 305.24 187.638 305.24 184.262C305.24 180.886 302.516 178.15 299.156 178.15C295.795 178.15 293.071 180.886 293.071 184.262C293.071 187.638 295.795 190.374 299.156 190.374Z" fill="white"/>
</g>
</g>
</g>
</svg>
