<svg width="844" height="445" viewBox="0 0 844 445" fill="none" xmlns="http://www.w3.org/2000/svg">
<rect width="844" height="445" fill="#422282"/>
<mask id="mask0_4860_687" style="mask-type:luminance" maskUnits="userSpaceOnUse" x="0" y="0" width="844" height="445">
<path d="M844 0H0V445H844V0Z" fill="white"/>
</mask>
<g mask="url(#mask0_4860_687)">
<mask id="mask1_4860_687" style="mask-type:luminance" maskUnits="userSpaceOnUse" x="176" y="172" width="492" height="101">
<path d="M668 172.5H176V272.5H668V172.5Z" fill="white"/>
</mask>
<g mask="url(#mask1_4860_687)">
<mask id="mask2_4860_687" style="mask-type:luminance" maskUnits="userSpaceOnUse" x="176" y="172" width="492" height="101">
<path d="M668 172.5H176V272.5H668V172.5Z" fill="white"/>
</mask>
<g mask="url(#mask2_4860_687)">
<path d="M188.077 237.812V265.791C188.077 267.514 189.524 268.228 189.974 268.391C190.424 268.586 191.935 269.008 193.285 267.741L214.29 247.4C216.078 245.668 217.805 243.848 219.102 241.717C219.713 240.716 219.966 240.152 219.966 240.152C221.252 237.52 221.252 234.985 219.998 232.45C218.134 228.681 213.376 224.846 206.207 221.207L193.96 228.096C190.327 230.176 188.077 233.848 188.077 237.812Z" fill="white" fill-opacity="0.8"/>
<path d="M176 175.582V204.926C176 208.598 178.443 211.848 181.915 212.888C193.745 216.332 214.35 223.741 219.333 234.627C219.975 236.057 220.361 237.455 220.491 238.917C223.801 232.84 225.312 225.854 224.605 218.769C223.64 208.728 218.368 199.597 210.139 193.78L180.79 173.08C180.275 172.69 179.665 172.495 179.054 172.495C178.54 172.495 178.089 172.593 177.607 172.853C176.643 173.405 176 174.413 176 175.582Z" fill="white"/>
<path d="M266.202 237.812V265.791C266.202 267.514 264.756 268.228 264.306 268.391C263.856 268.586 262.344 269.008 260.995 267.741L239.501 246.927C238.038 245.51 236.64 244.012 235.538 242.294C234.665 240.935 234.314 240.152 234.314 240.152C233.028 237.52 233.028 234.985 234.281 232.45C236.146 228.681 240.904 224.846 248.071 221.207L260.319 228.096C263.984 230.176 266.202 233.848 266.202 237.812Z" fill="white" fill-opacity="0.8"/>
<path d="M278.3 175.58V204.924C278.3 208.596 275.856 211.846 272.384 212.886C260.555 216.33 239.949 223.739 234.967 234.625C234.323 236.055 233.937 237.453 233.809 238.915C230.498 232.838 228.987 225.852 229.695 218.767C230.658 208.726 235.93 199.595 244.16 193.778L273.51 173.078C274.024 172.688 274.635 172.493 275.245 172.493C275.759 172.493 276.21 172.591 276.691 172.851C277.656 173.403 278.3 174.41 278.3 175.58Z" fill="white"/>
<path d="M328.091 181.921H339.327L365.367 242.612H366.138L392.178 181.921H403.22V251.893H395.022V196.207H394.251L370.382 251.893H360.93L337.06 196.207H336.288V251.893H328.091V181.921Z" fill="white"/>
<path d="M412.275 227.16C412.275 210.445 422.354 201.212 437.302 201.212C452.202 201.212 462.329 210.445 462.329 227.16C462.329 243.827 452.202 253.059 437.302 253.059C422.354 253.059 412.275 243.827 412.275 227.16ZM420.858 227.16C420.858 239.405 427.465 246.062 437.302 246.062C447.091 246.062 453.698 239.405 453.698 227.16C453.698 214.866 447.091 208.258 437.302 208.258C427.465 208.258 420.858 214.866 420.858 227.16Z" fill="white"/>
<path d="M470.434 202.378H478.632V208.307H479.403C481.092 204.808 484.178 202.184 491.555 202.184H498.403V209.57H491.748C482.538 209.57 478.921 214.672 478.921 224.731V251.893H470.434V202.378Z" fill="white"/>
<path d="M504.931 271.33V202.379H513.226V209.23H513.997C517.662 203.496 523.641 201.261 530.585 201.261C543.363 201.261 553.153 210.007 553.153 227.16C553.153 244.264 543.363 253.011 530.585 253.011C523.785 253.011 517.855 250.824 514.19 245.333H513.418V271.33H504.931ZM513.129 227.16C513.129 239.162 519.494 245.916 528.849 245.916C538.252 245.916 544.618 239.162 544.618 227.16C544.618 215.11 538.252 208.355 528.849 208.355C519.494 208.355 513.129 215.11 513.129 227.16Z" fill="white"/>
<path d="M561.279 181.921H569.766V208.501H570.538C574.057 203.253 579.893 201.261 586.788 201.261C598.217 201.261 605.45 207.092 605.45 219.191V251.893H596.963V220.017C596.963 211.951 592.574 208.404 584.908 208.404C576.517 208.404 569.766 213.409 569.766 224.245V251.893H561.279V181.921Z" fill="white"/>
<path d="M613.085 227.16C613.085 210.445 623.162 201.212 638.111 201.212C653.012 201.212 663.139 210.445 663.139 227.16C663.139 243.827 653.012 253.059 638.111 253.059C623.162 253.059 613.085 243.827 613.085 227.16ZM621.668 227.16C621.668 239.405 628.274 246.062 638.111 246.062C647.901 246.062 654.506 239.405 654.506 227.16C654.506 214.866 647.901 208.258 638.111 208.258C628.274 208.258 621.668 214.866 621.668 227.16Z" fill="white"/>
</g>
</g>
</g>
</svg>
