<svg width="844" height="445" viewBox="0 0 844 445" fill="none" xmlns="http://www.w3.org/2000/svg">
<rect width="844" height="445" fill="#012A82"/>
<mask id="mask0_4860_652" style="mask-type:luminance" maskUnits="userSpaceOnUse" x="0" y="0" width="844" height="445">
<path d="M844 0H0V445H844V0Z" fill="white"/>
</mask>
<g mask="url(#mask0_4860_652)">
</g>
<g clip-path="url(#clip0_4860_652)">
<mask id="mask1_4860_652" style="mask-type:luminance" maskUnits="userSpaceOnUse" x="162" y="154" width="136" height="137">
<path d="M297.172 154.725H162.5V290.275H297.172V154.725Z" fill="white"/>
</mask>
<g mask="url(#mask1_4860_652)">
<path d="M290.013 218.447C290.013 252.272 262.77 279.692 229.165 279.692C195.559 279.692 168.316 252.272 168.316 218.447C168.316 184.622 195.559 157.202 229.165 157.202C262.77 157.202 290.013 184.622 290.013 218.447Z" fill="#012A82"/>
<path d="M230.42 154.726C192.768 154.41 162.186 185.191 162.5 223.088C162.815 259.89 192.689 289.959 229.241 290.264C266.893 290.592 297.486 259.8 297.161 221.902C296.858 185.112 266.983 155.042 230.42 154.726ZM210.287 188.455C214.596 193.968 217.177 200.938 217.177 208.505C217.177 215.057 215.247 221.157 211.925 226.251H188.582L210.287 188.455ZM281.46 234.621C281.46 234.938 281.292 235.209 281 235.333C279.418 236.011 274.199 238.451 272.022 241.489C266.422 249.34 262.146 261.675 252.585 261.675H212.688C198.559 261.675 186.741 250.39 186.753 235.355C186.753 234.983 187.067 234.678 187.437 234.678H206.347C206.998 234.678 207.514 235.209 207.514 235.853V239.524C207.514 241.478 209.086 243.059 211.027 243.059H225.37V234.655H215.572C221.206 227.471 224.562 218.4 224.562 208.528C224.562 197.515 220.364 187.473 213.496 179.961C217.648 180.447 221.621 181.283 225.37 182.39V180.051C225.37 177.623 227.322 175.657 229.735 175.657C232.148 175.657 234.101 177.623 234.101 180.051V185.688C247.489 191.98 256.254 202.417 256.254 214.221C256.254 221.146 253.247 227.595 248.051 233.017C247.052 234.057 245.671 234.644 244.224 234.644H234.101V243.037H246.805C249.543 243.037 254.459 237.807 256.793 234.655C256.793 234.655 256.894 234.497 257.163 234.418C257.433 234.339 280.495 229.008 280.495 229.008C280.978 228.872 281.46 229.244 281.46 229.742V234.621Z" fill="white"/>
</g>
<path d="M351.865 251.911C346.538 251.911 341.646 250.652 337.188 248.135C332.73 245.618 329.197 242.144 326.588 237.712C323.978 233.225 322.674 228.164 322.674 222.528C322.674 216.947 323.978 211.941 326.588 207.509C329.197 203.022 332.73 199.521 337.188 197.004C341.646 194.487 346.538 193.229 351.865 193.229C357.247 193.229 362.14 194.487 366.543 197.004C371 199.521 374.507 203.022 377.062 207.509C379.671 211.941 380.976 216.947 380.976 222.528C380.976 228.164 379.671 233.225 377.062 237.712C374.507 242.144 371 245.618 366.543 248.135C362.085 250.652 357.193 251.911 351.865 251.911ZM351.865 241.651C355.29 241.651 358.307 240.885 360.917 239.353C363.526 237.767 365.564 235.523 367.032 232.623C368.5 229.723 369.234 226.358 369.234 222.528C369.234 218.698 368.5 215.361 367.032 212.516C365.564 209.616 363.526 207.4 360.917 205.868C358.307 204.335 355.29 203.569 351.865 203.569C348.441 203.569 345.397 204.335 342.733 205.868C340.123 207.4 338.085 209.616 336.617 212.516C335.15 215.361 334.416 218.698 334.416 222.528C334.416 226.358 335.15 229.723 336.617 232.623C338.085 235.523 340.123 237.767 342.733 239.353C345.397 240.885 348.441 241.651 351.865 241.651Z" fill="white"/>
<path d="M397.623 212.433C399.091 210.354 401.102 208.631 403.657 207.263C406.266 205.84 409.229 205.129 412.545 205.129C416.404 205.129 419.883 206.086 422.982 208.002C426.135 209.916 428.608 212.652 430.403 216.209C432.251 219.711 433.175 223.787 433.175 228.438C433.175 233.089 432.251 237.22 430.403 240.831C428.608 244.387 426.135 247.15 422.982 249.12C419.883 251.09 416.404 252.075 412.545 252.075C409.229 252.075 406.293 251.391 403.738 250.023C401.238 248.655 399.199 246.931 397.623 244.852V273.003H386.207V205.867H397.623V212.433ZM421.514 228.438C421.514 225.702 420.944 223.349 419.802 221.38C418.715 219.355 417.247 217.823 415.399 216.783C413.605 215.744 411.648 215.224 409.528 215.224C407.462 215.224 405.505 215.771 403.657 216.865C401.863 217.905 400.395 219.437 399.254 221.462C398.166 223.486 397.623 225.866 397.623 228.602C397.623 231.338 398.166 233.718 399.254 235.742C400.395 237.767 401.863 239.326 403.657 240.42C405.505 241.46 407.462 241.979 409.528 241.979C411.648 241.979 413.605 241.432 415.399 240.338C417.247 239.244 418.715 237.685 419.802 235.66C420.944 233.636 421.514 231.228 421.514 228.438Z" fill="white"/>
<path d="M482.649 227.617C482.649 229.259 482.54 230.736 482.322 232.049H449.298C449.57 235.332 450.712 237.904 452.723 239.764C454.734 241.624 457.208 242.554 460.143 242.554C464.383 242.554 467.401 240.721 469.194 237.055H481.507C480.203 241.432 477.702 245.044 474.005 247.889C470.309 250.679 465.77 252.075 460.388 252.075C456.039 252.075 452.125 251.117 448.646 249.202C445.222 247.232 442.53 244.469 440.573 240.913C438.671 237.356 437.72 233.253 437.72 228.602C437.72 223.896 438.671 219.765 440.573 216.209C442.476 212.652 445.14 209.916 448.565 208.002C451.989 206.086 455.93 205.129 460.388 205.129C464.683 205.129 468.515 206.059 471.885 207.92C475.31 209.78 477.947 212.433 479.795 215.881C481.697 219.273 482.649 223.185 482.649 227.617ZM470.825 224.334C470.771 221.38 469.711 219.027 467.645 217.276C465.579 215.47 463.052 214.567 460.062 214.567C457.235 214.567 454.843 215.443 452.886 217.194C450.984 218.89 449.815 221.27 449.38 224.334H470.825Z" fill="white"/>
<path d="M513.568 205.211C518.95 205.211 523.299 206.935 526.615 210.382C529.931 213.774 531.589 218.534 531.589 224.663V251.336H520.173V226.222C520.173 222.61 519.276 219.848 517.482 217.932C515.688 215.963 513.242 214.978 510.143 214.978C506.991 214.978 504.49 215.963 502.642 217.932C500.848 219.848 499.951 222.61 499.951 226.222V251.336H488.535V205.868H499.951V211.531C501.473 209.561 503.403 208.029 505.74 206.935C508.132 205.786 510.741 205.211 513.568 205.211Z" fill="white"/>
<path d="M558.02 251.911C554.051 251.911 550.463 251.227 547.256 249.859C544.103 248.491 541.603 246.521 539.754 243.949C537.906 241.378 536.955 238.341 536.9 234.84H549.131C549.295 237.192 550.11 239.052 551.578 240.421C553.1 241.788 555.166 242.472 557.775 242.472C560.438 242.472 562.531 241.843 564.053 240.584C565.576 239.271 566.337 237.575 566.337 235.496C566.337 233.8 565.82 232.405 564.787 231.31C563.755 230.216 562.45 229.368 560.873 228.766C559.351 228.109 557.231 227.398 554.513 226.632C550.817 225.538 547.8 224.471 545.462 223.431C543.179 222.337 541.195 220.723 539.51 218.589C537.879 216.4 537.063 213.501 537.063 209.889C537.063 206.497 537.906 203.542 539.591 201.026C541.277 198.509 543.641 196.593 546.685 195.28C549.73 193.912 553.209 193.229 557.123 193.229C562.994 193.229 567.75 194.678 571.392 197.578C575.089 200.423 577.127 204.418 577.508 209.561H564.951C564.842 207.591 563.999 205.977 562.423 204.719C560.901 203.406 558.862 202.749 556.307 202.749C554.078 202.749 552.284 203.324 550.925 204.472C549.621 205.622 548.968 207.29 548.968 209.479C548.968 211.011 549.458 212.297 550.436 213.336C551.469 214.321 552.719 215.142 554.187 215.799C555.709 216.4 557.829 217.112 560.547 217.932C564.244 219.027 567.261 220.121 569.598 221.215C571.936 222.31 573.947 223.951 575.633 226.14C577.318 228.328 578.16 231.201 578.16 234.757C578.16 237.821 577.372 240.666 575.795 243.293C574.219 245.919 571.909 248.026 568.865 249.613C565.82 251.145 562.205 251.911 558.02 251.911Z" fill="white"/>
<path d="M626.79 227.617C626.79 229.259 626.678 230.736 626.463 232.049H593.438C593.71 235.332 594.851 237.904 596.863 239.764C598.874 241.624 601.348 242.554 604.283 242.554C608.523 242.554 611.542 240.721 613.336 237.055H625.649C624.343 241.432 621.842 245.044 618.146 247.889C614.45 250.679 609.91 252.075 604.528 252.075C600.179 252.075 596.265 251.117 592.786 249.202C589.361 247.232 586.67 244.469 584.713 240.913C582.811 237.356 581.859 233.253 581.859 228.602C581.859 223.896 582.811 219.765 584.713 216.209C586.616 212.652 589.28 209.916 592.704 208.002C596.129 206.086 600.07 205.129 604.528 205.129C608.822 205.129 612.656 206.059 616.025 207.92C619.448 209.78 622.088 212.433 623.935 215.881C625.837 219.273 626.79 223.185 626.79 227.617ZM614.965 224.334C614.911 221.38 613.851 219.027 611.784 217.276C609.719 215.47 607.191 214.567 604.201 214.567C601.375 214.567 598.983 215.443 597.026 217.194C595.123 218.89 593.955 221.27 593.52 224.334H614.965Z" fill="white"/>
<path d="M630.553 228.438C630.553 223.842 631.452 219.765 633.246 216.209C635.094 212.652 637.568 209.916 640.664 208.002C643.819 206.086 647.326 205.129 651.183 205.129C654.556 205.129 657.492 205.813 659.993 207.181C662.547 208.549 664.583 210.272 666.109 212.351V205.867H677.603V251.336H666.109V244.688C664.637 246.822 662.601 248.6 659.993 250.023C657.438 251.391 654.471 252.075 651.102 252.075C647.299 252.075 643.819 251.09 640.664 249.12C637.568 247.15 635.094 244.387 633.246 240.831C631.452 237.219 630.553 233.089 630.553 228.438ZM666.109 228.602C666.109 225.811 665.563 223.431 664.476 221.462C663.388 219.437 661.921 217.905 660.073 216.865C658.225 215.771 656.239 215.224 654.118 215.224C652.002 215.224 650.042 215.744 648.248 216.783C646.454 217.823 644.986 219.355 643.845 221.38C642.758 223.349 642.217 225.702 642.217 228.438C642.217 231.173 642.758 233.581 643.845 235.66C644.986 237.685 646.454 239.244 648.248 240.338C650.096 241.432 652.055 241.979 654.118 241.979C656.239 241.979 658.225 241.46 660.073 240.42C661.921 239.326 663.388 237.794 664.476 235.824C665.563 233.8 666.109 231.392 666.109 228.602Z" fill="white"/>
</g>
<defs>
<clipPath id="clip0_4860_652">
<rect width="519" height="136" fill="white" transform="translate(162.5 154.5)"/>
</clipPath>
</defs>
</svg>
